<svg width="15" height="15" viewBox="0 0 15 15" fill="none" xmlns="http://www.w3.org/2000/svg">
<path d="M13.811 0.770142C14.1118 0.852173 14.3306 1.09827 14.3306 1.39905C14.3306 8.42639 8.64307 14.0865 1.64307 14.0865C1.31494 14.0865 1.06885 13.8951 0.986816 13.5944L0.330566 10.7506C0.275879 10.4498 0.412598 10.1217 0.713379 9.98499L3.77588 8.67249C4.04932 8.56311 4.3501 8.64514 4.5415 8.86389L5.90869 10.5319C8.0415 9.52014 9.76416 7.77014 10.7485 5.69202L9.08057 4.32483C8.86182 4.13342 8.77979 3.83264 8.88916 3.5592L10.2017 0.496704C10.3384 0.195923 10.6665 0.0318604 10.9673 0.113892L13.811 0.770142Z" fill="#23B49C"/>
</svg>
