<svg width="15" height="15" viewBox="0 0 15 15" fill="none" xmlns="http://www.w3.org/2000/svg">
<path d="M14.1556 0.832336C14.347 1.70734 14.347 2.39093 14.3197 3.07452C14.3197 5.89093 12.8158 7.58624 10.8197 8.84406V11.7151C10.8197 12.1526 10.5189 12.6722 10.1088 12.8909L7.40173 14.2308C7.3197 14.2581 7.21033 14.3128 7.1283 14.3128C6.74548 14.3128 6.47205 14.012 6.47205 13.6566V13.6292V10.8128L5.84314 11.4144C5.70642 11.5511 5.43298 11.6878 5.21423 11.6878C5.02283 11.6878 4.74939 11.5511 4.61267 11.4144L3.21814 10.0198C3.08142 9.88312 2.97205 9.60968 2.97205 9.41827C2.97205 9.19952 3.08142 8.92609 3.21814 8.78937L3.8197 8.16046H1.0033C0.620483 8.16046 0.347046 7.88702 0.347046 7.50421C0.347046 7.42218 0.37439 7.31281 0.401733 7.23077L1.76892 4.52374C1.96033 4.11359 2.47986 3.81281 2.91736 3.78546H5.78845C7.04626 1.81671 8.74158 0.285461 11.558 0.285461C12.2416 0.285461 12.9252 0.285461 13.8002 0.476868C13.9642 0.531555 14.101 0.668274 14.1556 0.832336ZM10.847 4.87921C11.4486 4.87921 11.9408 4.41437 11.9408 3.78546C11.9408 3.1839 11.4486 2.69171 10.847 2.69171C10.2181 2.69171 9.7533 3.1839 9.7533 3.78546C9.7533 4.41437 10.2181 4.87921 10.847 4.87921Z" fill="#23B49C"/>
</svg>
