<svg width="14" height="15" viewBox="0 0 14 15" fill="none" xmlns="http://www.w3.org/2000/svg">
<path d="M13.0728 2.84421C13.5649 3.06296 13.8931 3.5278 13.8931 4.04733C13.8931 10.1176 10.1743 13.4809 7.82275 14.4653C7.49463 14.602 7.13916 14.602 6.81104 14.4653C3.88525 13.2348 0.768066 9.48874 0.768066 4.04733C0.768066 3.5278 1.06885 3.06296 1.56104 2.84421L6.81104 0.656708C6.94775 0.60202 7.1665 0.574677 7.33057 0.574677C7.46729 0.574677 7.68604 0.60202 7.82275 0.656708L13.0728 2.84421ZM7.33057 12.77C9.87354 11.4848 12.0337 8.47702 12.1157 4.34811L7.33057 2.35202V12.77Z" fill="#23B49C"/>
</svg>
