<svg width="128" height="11" viewBox="0 0 128 11" fill="none" xmlns="http://www.w3.org/2000/svg">
<path d="M4.772 1.08301C5.444 1.08301 6.024 1.20301 6.512 1.44301C7.008 1.68301 7.388 2.01901 7.652 2.45101C7.924 2.87501 8.06 3.36701 8.06 3.92701C8.06 4.48701 7.924 4.98301 7.652 5.41501C7.388 5.83901 7.008 6.17101 6.512 6.41101C6.024 6.65101 5.444 6.77101 4.772 6.77101H0.728V5.40301H4.712C5.256 5.40301 5.68 5.27101 5.984 5.00701C6.296 4.74301 6.452 4.38301 6.452 3.92701C6.452 3.47101 6.296 3.11101 5.984 2.84701C5.68 2.58301 5.256 2.45101 4.712 2.45101H0.884L1.592 1.65901V10.083H0.00800008V1.08301H4.772ZM9.35956 1.08301H10.9436V10.083H9.35956V1.08301ZM16.6796 1.08301H18.2636V10.083H16.6796V1.08301ZM10.2116 4.85101H17.4356V6.24301H10.2116V4.85101ZM24.9614 10.251C23.9374 10.251 23.0374 10.055 22.2614 9.66301C21.4854 9.27101 20.8814 8.72701 20.4494 8.03101C20.0174 7.32701 19.8014 6.51101 19.8014 5.58301C19.8014 4.65501 20.0174 3.84301 20.4494 3.14701C20.8814 2.44301 21.4854 1.89501 22.2614 1.50301C23.0374 1.11101 23.9374 0.915007 24.9614 0.915007C25.9854 0.915007 26.8854 1.11101 27.6614 1.50301C28.4374 1.89501 29.0414 2.44301 29.4734 3.14701C29.9054 3.84301 30.1214 4.65501 30.1214 5.58301C30.1214 6.51101 29.9054 7.32701 29.4734 8.03101C29.0414 8.72701 28.4374 9.27101 27.6614 9.66301C26.8854 10.055 25.9854 10.251 24.9614 10.251ZM24.9614 8.83501C25.6894 8.83501 26.3174 8.70301 26.8454 8.43901C27.3734 8.17501 27.7814 7.79901 28.0694 7.31101C28.3654 6.82301 28.5134 6.24701 28.5134 5.58301C28.5134 4.91901 28.3654 4.34301 28.0694 3.85501C27.7814 3.36701 27.3734 2.99101 26.8454 2.72701C26.3174 2.46301 25.6894 2.33101 24.9614 2.33101C24.2414 2.33101 23.6134 2.46301 23.0774 2.72701C22.5494 2.99101 22.1374 3.36701 21.8414 3.85501C21.5534 4.34301 21.4094 4.91901 21.4094 5.58301C21.4094 6.24701 21.5534 6.82301 21.8414 7.31101C22.1374 7.79901 22.5494 8.17501 23.0774 8.43901C23.6134 8.70301 24.2414 8.83501 24.9614 8.83501ZM40.0003 9.12301L39.3523 9.19501V1.08301H40.8883V10.083H38.8723L32.5603 1.97101L33.1963 1.89901V10.083H31.6603V1.08301H33.7243L40.0003 9.12301ZM50.0866 4.92301V6.24301H43.7986V4.92301H50.0866ZM44.8426 5.58301L44.2066 9.60301L43.4506 8.71501H50.4346V10.083H42.5866L43.3066 5.58301L42.5866 1.08301H50.3746V2.45101H43.4506L44.2066 1.56301L44.8426 5.58301ZM63.6019 9.12301L62.9539 9.19501V1.08301H64.4899V10.083H62.4739L56.1619 1.97101L56.7979 1.89901V10.083H55.2619V1.08301H57.3259L63.6019 9.12301ZM67.9642 6.21901C67.9642 6.75501 68.0722 7.21901 68.2882 7.61101C68.5042 8.00301 68.8122 8.30701 69.2122 8.52301C69.6202 8.73101 70.1042 8.83501 70.6642 8.83501C71.2322 8.83501 71.7162 8.73101 72.1162 8.52301C72.5162 8.30701 72.8242 8.00301 73.0402 7.61101C73.2562 7.21901 73.3642 6.75501 73.3642 6.21901V1.08301H74.9482V6.27901C74.9482 7.07101 74.7682 7.76701 74.4082 8.36701C74.0482 8.95901 73.5482 9.42301 72.9082 9.75901C72.2682 10.087 71.5202 10.251 70.6642 10.251C69.8162 10.251 69.0682 10.087 68.4202 9.75901C67.7802 9.42301 67.2802 8.95901 66.9202 8.36701C66.5602 7.76701 66.3802 7.07101 66.3802 6.27901V1.08301H67.9642V6.21901ZM88.9558 1.08301V10.083H87.4438V1.56301L87.9358 1.58701L83.7478 10.083H82.0558L77.8678 1.59901L78.3598 1.57501V10.083H76.8478V1.08301H79.2718L83.3038 9.39901H82.5118L86.5318 1.08301H88.9558ZM96.4289 5.61901L96.5849 5.27101C97.2969 5.27901 97.8769 5.38701 98.3249 5.59501C98.7809 5.80301 99.1129 6.08301 99.3209 6.43501C99.5369 6.78701 99.6449 7.18301 99.6449 7.62301C99.6449 8.10301 99.5289 8.52701 99.2969 8.89501C99.0729 9.26301 98.7409 9.55501 98.3009 9.77101C97.8609 9.97901 97.3129 10.083 96.6569 10.083H90.6569L91.3649 5.46301L90.6569 1.08301H96.4409C97.2729 1.08301 97.9129 1.27901 98.3609 1.67101C98.8169 2.05501 99.0449 2.58701 99.0449 3.26701C99.0449 3.62701 98.9569 3.97901 98.7809 4.32301C98.6129 4.65901 98.3369 4.94701 97.9529 5.18701C97.5769 5.41901 97.0689 5.56301 96.4289 5.61901ZM92.2529 9.63901L91.6409 8.81101H96.4769C96.9729 8.81101 97.3569 8.69901 97.6289 8.47501C97.9089 8.24301 98.0489 7.91501 98.0489 7.49101C98.0489 7.04301 97.8849 6.69501 97.5569 6.44701C97.2369 6.19901 96.7609 6.07501 96.1289 6.07501H92.2289V4.85101H95.9729C96.3969 4.85101 96.7489 4.73501 97.0289 4.50301C97.3089 4.26301 97.4489 3.92301 97.4489 3.48301C97.4489 3.15501 97.3329 2.88701 97.1009 2.67901C96.8689 2.46301 96.5329 2.35501 96.0929 2.35501H91.6409L92.2529 1.52701L92.8889 5.46301L92.2529 9.63901ZM108.317 4.92301V6.24301H102.029V4.92301H108.317ZM103.073 5.58301L102.437 9.60301L101.681 8.71501H108.665V10.083H100.817L101.537 5.58301L100.817 1.08301H108.605V2.45101H101.681L102.437 1.56301L103.073 5.58301ZM111.421 5.13901H115.081C115.609 5.13901 116.025 5.01901 116.329 4.77901C116.641 4.53901 116.797 4.21101 116.797 3.79501C116.797 3.37101 116.641 3.04301 116.329 2.81101C116.025 2.57101 115.609 2.45101 115.081 2.45101H111.193L111.901 1.56301V10.083H110.317V1.08301H115.225C115.857 1.08301 116.409 1.19901 116.881 1.43101C117.361 1.65501 117.733 1.97101 117.997 2.37901C118.269 2.77901 118.405 3.25101 118.405 3.79501C118.405 4.32301 118.269 4.79101 117.997 5.19901C117.733 5.59901 117.361 5.91501 116.881 6.14701C116.409 6.37101 115.857 6.48301 115.225 6.48301H111.421V5.13901ZM113.197 5.87101H115.057L118.633 10.083H116.737L113.197 5.87101ZM124.545 0.903007H125.589L125.529 2.88301L127.389 2.17501L127.713 3.17101L125.805 3.74701L127.077 5.33101L126.237 5.94301L125.073 4.28701L123.897 5.94301L123.057 5.33101L124.329 3.74701L122.433 3.17101L122.745 2.17501L124.617 2.88301L124.545 0.903007Z" fill="#F9F9F9"/>
</svg>
