<svg width="13" height="15" viewBox="0 0 13 15" fill="none" xmlns="http://www.w3.org/2000/svg">
<path d="M6.48529 7.56287C4.54388 7.56287 2.98529 6.00427 2.98529 4.06287C2.98529 2.1488 4.54388 0.562866 6.48529 0.562866C8.39935 0.562866 9.98529 2.1488 9.98529 4.06287C9.98529 6.00427 8.39935 7.56287 6.48529 7.56287ZM8.91888 8.43787C10.9423 8.43787 12.6103 10.1058 12.6103 12.1293V13.2504C12.6103 13.9886 12.0087 14.5629 11.2978 14.5629H1.67279C0.934509 14.5629 0.360291 13.9886 0.360291 13.2504V12.1293C0.360291 10.1058 2.00092 8.43787 4.02435 8.43787H4.4892C5.09076 8.73865 5.77435 8.87537 6.48529 8.87537C7.19623 8.87537 7.85248 8.73865 8.45404 8.43787H8.91888Z" fill="#23B49C"/>
</svg>
