<svg width="15" height="14" viewBox="0 0 15 14" fill="none" xmlns="http://www.w3.org/2000/svg">
<path d="M7.36951 0.043457C11.0883 0.043457 14.1508 3.10596 14.1508 6.82471C14.1508 10.5708 11.0883 13.606 7.36951 13.606C3.62341 13.606 0.588257 10.5708 0.588257 6.82471C0.588257 3.10596 3.62341 0.043457 7.36951 0.043457ZM7.36951 11.856C10.1312 11.856 12.4008 9.61377 12.4008 6.82471C12.4008 4.06299 10.1312 1.79346 7.36951 1.79346C4.58044 1.79346 2.33826 4.06299 2.33826 6.82471C2.33826 9.61377 4.58044 11.856 7.36951 11.856ZM7.36951 3.32471C9.28357 3.32471 10.8695 4.91064 10.8695 6.82471C10.8695 8.76611 9.28357 10.3247 7.36951 10.3247C5.4281 10.3247 3.86951 8.76611 3.86951 6.82471C3.86951 4.91064 5.4281 3.32471 7.36951 3.32471ZM7.36951 8.57471C8.32654 8.57471 9.11951 7.80908 9.11951 6.82471C9.11951 5.86768 8.32654 5.07471 7.36951 5.07471C6.38513 5.07471 5.61951 5.86768 5.61951 6.82471C5.61951 7.80908 6.38513 8.57471 7.36951 8.57471Z" fill="#23B49C"/>
</svg>
