<svg width="58" height="45" viewBox="0 0 58 45" fill="none" xmlns="http://www.w3.org/2000/svg">
<path d="M32.824 44.267V31.641C32.824 23.127 34.904 16.1367 39.064 10.67C43.224 5.20338 49.3693 1.64667 57.5 0V10.884C54.3789 11.5203 51.4924 13.0011 49.155 15.165C47.0416 17.1365 45.5531 19.6847 44.874 22.494H54.597V44.2629L32.824 44.267ZM0.895996 44.267V31.641C0.895996 23.127 2.97599 16.1367 7.13599 10.67C11.296 5.20338 17.44 1.64667 25.568 0V10.884C22.4469 11.5203 19.5604 13.0011 17.223 15.165C15.1096 17.1365 13.6211 19.6847 12.942 22.494H22.665V44.2629L0.895996 44.267Z" fill="url(#paint0_linear_2_276)"/>
<defs>
<linearGradient id="paint0_linear_2_276" x1="7.06583" y1="0" x2="51.3302" y2="0" gradientUnits="userSpaceOnUse">
<stop stop-color="#FA6006"/>
<stop offset="1" stop-color="#FFB58A"/>
</linearGradient>
</defs>
</svg>
