<svg width="99" height="11" viewBox="0 0 99 11" fill="none" xmlns="http://www.w3.org/2000/svg">
<path d="M4.44 10.083V5.78701H6.024V10.083H4.44ZM0.192 1.08301H1.98L5.652 5.69101H4.8L8.472 1.08301H10.26L5.736 6.75901L4.728 6.77101L0.192 1.08301ZM15.1333 10.251C14.1093 10.251 13.2093 10.055 12.4333 9.66301C11.6573 9.27101 11.0533 8.72701 10.6213 8.03101C10.1893 7.32701 9.97331 6.51101 9.97331 5.58301C9.97331 4.65501 10.1893 3.84301 10.6213 3.14701C11.0533 2.44301 11.6573 1.89501 12.4333 1.50301C13.2093 1.11101 14.1093 0.915007 15.1333 0.915007C16.1573 0.915007 17.0573 1.11101 17.8333 1.50301C18.6093 1.89501 19.2133 2.44301 19.6453 3.14701C20.0773 3.84301 20.2933 4.65501 20.2933 5.58301C20.2933 6.51101 20.0773 7.32701 19.6453 8.03101C19.2133 8.72701 18.6093 9.27101 17.8333 9.66301C17.0573 10.055 16.1573 10.251 15.1333 10.251ZM15.1333 8.83501C15.8613 8.83501 16.4893 8.70301 17.0173 8.43901C17.5453 8.17501 17.9533 7.79901 18.2413 7.31101C18.5373 6.82301 18.6853 6.24701 18.6853 5.58301C18.6853 4.91901 18.5373 4.34301 18.2413 3.85501C17.9533 3.36701 17.5453 2.99101 17.0173 2.72701C16.4893 2.46301 15.8613 2.33101 15.1333 2.33101C14.4133 2.33101 13.7853 2.46301 13.2493 2.72701C12.7213 2.99101 12.3093 3.36701 12.0133 3.85501C11.7253 4.34301 11.5813 4.91901 11.5813 5.58301C11.5813 6.24701 11.7253 6.82301 12.0133 7.31101C12.3093 7.79901 12.7213 8.17501 13.2493 8.43901C13.7853 8.70301 14.4133 8.83501 15.1333 8.83501ZM23.2962 6.21901C23.2962 6.75501 23.4042 7.21901 23.6202 7.61101C23.8362 8.00301 24.1442 8.30701 24.5442 8.52301C24.9522 8.73101 25.4362 8.83501 25.9962 8.83501C26.5642 8.83501 27.0482 8.73101 27.4482 8.52301C27.8482 8.30701 28.1562 8.00301 28.3722 7.61101C28.5882 7.21901 28.6962 6.75501 28.6962 6.21901V1.08301H30.2802V6.27901C30.2802 7.07101 30.1002 7.76701 29.7402 8.36701C29.3802 8.95901 28.8802 9.42301 28.2402 9.75901C27.6002 10.087 26.8522 10.251 25.9962 10.251C25.1482 10.251 24.4002 10.087 23.7522 9.75901C23.1122 9.42301 22.6122 8.95901 22.2522 8.36701C21.8922 7.76701 21.7122 7.07101 21.7122 6.27901V1.08301H23.2962V6.21901ZM33.2839 5.13901H36.9439C37.4719 5.13901 37.8879 5.01901 38.1919 4.77901C38.5039 4.53901 38.6599 4.21101 38.6599 3.79501C38.6599 3.37101 38.5039 3.04301 38.1919 2.81101C37.8879 2.57101 37.4719 2.45101 36.9439 2.45101H33.0559L33.7639 1.56301V10.083H32.1799V1.08301H37.0879C37.7199 1.08301 38.2719 1.19901 38.7439 1.43101C39.2239 1.65501 39.5959 1.97101 39.8599 2.37901C40.1319 2.77901 40.2679 3.25101 40.2679 3.79501C40.2679 4.32301 40.1319 4.79101 39.8599 5.19901C39.5959 5.59901 39.2239 5.91501 38.7439 6.14701C38.2719 6.37101 37.7199 6.48301 37.0879 6.48301H33.2839V5.13901ZM35.0599 5.87101H36.9199L40.4959 10.083H38.5999L35.0599 5.87101ZM53.4222 9.12301L52.7742 9.19501V1.08301H54.3102V10.083H52.2942L45.9822 1.97101L46.6182 1.89901V10.083H45.0822V1.08301H47.1462L53.4222 9.12301ZM57.5205 8.01901V6.71101H63.8085V8.01901H57.5205ZM61.6965 1.08301L66.0165 10.083H64.3245L60.4005 1.68301H61.0125L57.0885 10.083H55.3965L59.7165 1.08301H61.6965ZM79.2215 1.08301V10.083H77.7095V1.56301L78.2015 1.58701L74.0135 10.083H72.3215L68.1335 1.59901L68.6255 1.57501V10.083H67.1135V1.08301H69.5375L73.5695 9.39901H72.7775L76.7975 1.08301H79.2215ZM88.4226 4.92301V6.24301H82.1346V4.92301H88.4226ZM83.1786 5.58301L82.5426 9.60301L81.7866 8.71501H88.7706V10.083H80.9226L81.6426 5.58301L80.9226 1.08301H88.7106V2.45101H81.7866L82.5426 1.56301L83.1786 5.58301Z" fill="#F9F9F9"/>
<path d="M94.924 0.903007H95.968L95.908 2.88301L97.768 2.17501L98.092 3.17101L96.184 3.74701L97.456 5.33101L96.616 5.94301L95.452 4.28701L94.276 5.94301L93.436 5.33101L94.708 3.74701L92.812 3.17101L93.124 2.17501L94.996 2.88301L94.924 0.903007Z" fill="#FC843E"/>
</svg>
