<svg width="108" height="16" viewBox="0 0 108 16" fill="none" xmlns="http://www.w3.org/2000/svg">
<path d="M7.63595 1.047L5.72299 4.92603L1.44296 5.55005C1.26981 5.57534 1.10719 5.64848 0.973478 5.76135C0.839764 5.87423 0.740238 6.02227 0.686247 6.18872C0.632255 6.35517 0.625938 6.53338 0.667936 6.70325C0.709935 6.87312 0.798583 7.02791 0.923918 7.15002L4.02402 10.168L3.29196 14.431C3.26265 14.6032 3.28206 14.7801 3.34799 14.9419C3.41392 15.1036 3.52368 15.2438 3.66501 15.3464C3.80633 15.4491 3.97358 15.5102 4.14779 15.5228C4.322 15.5355 4.49629 15.4991 4.65097 15.418L8.47995 13.405L12.3089 15.418C12.4636 15.4987 12.6378 15.5347 12.8119 15.5219C12.9859 15.509 13.153 15.4479 13.2942 15.3453C13.4354 15.2428 13.5451 15.1029 13.6112 14.9414C13.6772 14.7799 13.6969 14.6031 13.6679 14.431L12.936 10.168L16.036 7.15002C16.1613 7.02791 16.25 6.87312 16.292 6.70325C16.334 6.53338 16.3276 6.35517 16.2736 6.18872C16.2197 6.02227 16.1201 5.87423 15.9864 5.76135C15.8527 5.64848 15.6901 5.57534 15.5169 5.55005L11.237 4.92603L9.32394 1.047C9.24709 0.888516 9.12726 0.754882 8.97799 0.661377C8.82873 0.567872 8.65608 0.518311 8.47995 0.518311C8.30382 0.518311 8.13129 0.567872 7.98202 0.661377C7.83276 0.754882 7.71281 0.888516 7.63595 1.047ZM30.37 1.047L28.457 4.92603L24.177 5.55005C24.0038 5.57534 23.8412 5.64848 23.7075 5.76135C23.5738 5.87423 23.4742 6.02227 23.4203 6.18872C23.3663 6.35517 23.3599 6.53338 23.4019 6.70325C23.4439 6.87312 23.5326 7.02791 23.6579 7.15002L26.758 10.168L26.026 14.431C25.9967 14.6032 26.0161 14.7801 26.082 14.9419C26.1479 15.1036 26.2577 15.2438 26.399 15.3464C26.5403 15.4491 26.7076 15.5102 26.8818 15.5228C27.056 15.5355 27.2303 15.4991 27.385 15.418L31.214 13.405L35.0429 15.418C35.1976 15.4987 35.3718 15.5347 35.5459 15.5219C35.7199 15.509 35.887 15.4479 36.0282 15.3453C36.1694 15.2428 36.2791 15.1029 36.3452 14.9414C36.4112 14.7799 36.4309 14.6031 36.4019 14.431L35.67 10.168L38.77 7.15002C38.8953 7.02791 38.984 6.87312 39.026 6.70325C39.068 6.53338 39.0616 6.35517 39.0077 6.18872C38.9537 6.02227 38.8541 5.87423 38.7204 5.76135C38.5867 5.64848 38.4241 5.57534 38.2509 5.55005L33.9709 4.92603L32.058 1.047C31.9811 0.888516 31.8611 0.754882 31.7119 0.661377C31.5626 0.567872 31.3901 0.518311 31.214 0.518311C31.0378 0.518311 30.8653 0.567872 30.716 0.661377C30.5668 0.754882 30.4468 0.888516 30.37 1.047ZM53.104 1.047L51.191 4.92603L46.911 5.55005C46.7378 5.57534 46.5752 5.64848 46.4415 5.76135C46.3078 5.87423 46.2083 6.02227 46.1543 6.18872C46.1003 6.35517 46.094 6.53338 46.136 6.70325C46.178 6.87312 46.2666 7.02791 46.3919 7.15002L49.4919 10.168L48.76 14.431C48.7307 14.6032 48.7501 14.7801 48.816 14.9419C48.8819 15.1036 48.9917 15.2438 49.133 15.3464C49.2743 15.4491 49.4416 15.5102 49.6158 15.5228C49.79 15.5355 49.9643 15.4991 50.119 15.418L53.948 13.405L57.7769 15.418C57.9317 15.4987 58.1058 15.5347 58.2799 15.5219C58.4539 15.509 58.621 15.4479 58.7622 15.3453C58.9034 15.2428 59.0131 15.1029 59.0792 14.9414C59.1452 14.7799 59.1649 14.6031 59.136 14.431L58.404 10.168L61.504 7.15002C61.6293 7.02791 61.718 6.87312 61.76 6.70325C61.802 6.53338 61.7957 6.35517 61.7417 6.18872C61.6877 6.02227 61.5881 5.87423 61.4544 5.76135C61.3207 5.64848 61.1581 5.57534 60.985 5.55005L56.7049 4.92603L54.792 1.047C54.7155 0.887434 54.5956 0.752736 54.4459 0.658447C54.2962 0.564159 54.1229 0.51416 53.946 0.51416C53.7691 0.51416 53.5957 0.564159 53.446 0.658447C53.2963 0.752736 53.1764 0.887434 53.0999 1.047H53.104ZM75.838 1.047L73.925 4.92603L69.645 5.55005C69.4718 5.57534 69.3092 5.64848 69.1755 5.76135C69.0418 5.87423 68.9423 6.02227 68.8883 6.18872C68.8343 6.35517 68.828 6.53338 68.87 6.70325C68.912 6.87312 69.0006 7.02791 69.1259 7.15002L72.2259 10.168L71.494 14.431C71.4647 14.6032 71.4841 14.7801 71.55 14.9419C71.6159 15.1036 71.7257 15.2438 71.867 15.3464C72.0084 15.4491 72.1756 15.5102 72.3498 15.5228C72.524 15.5355 72.6983 15.4991 72.853 15.418L76.682 13.405L80.511 15.418C80.6657 15.4987 80.8398 15.5347 81.0139 15.5219C81.1879 15.509 81.355 15.4479 81.4962 15.3453C81.6374 15.2428 81.7472 15.1029 81.8132 14.9414C81.8792 14.7799 81.8989 14.6031 81.87 14.431L81.1379 10.168L84.238 7.15002C84.3633 7.02791 84.452 6.87312 84.494 6.70325C84.536 6.53338 84.5297 6.35517 84.4757 6.18872C84.4217 6.02227 84.3222 5.87423 84.1884 5.76135C84.0547 5.64848 83.8921 5.57534 83.719 5.55005L79.4389 4.92603L77.526 1.047C77.449 0.888785 77.3291 0.75542 77.1799 0.662109C77.0307 0.568799 76.8584 0.519287 76.6825 0.519287C76.5065 0.519287 76.3342 0.568799 76.185 0.662109C76.0359 0.75542 75.9149 0.888785 75.838 1.047ZM98.572 1.047L96.659 4.92603L92.379 5.55005C92.2058 5.57534 92.0432 5.64848 91.9095 5.76135C91.7758 5.87423 91.6763 6.02227 91.6223 6.18872C91.5683 6.35517 91.562 6.53338 91.604 6.70325C91.646 6.87312 91.7346 7.02791 91.86 7.15002L94.9599 10.168L94.228 14.431C94.1987 14.6032 94.2181 14.7801 94.284 14.9419C94.35 15.1036 94.4597 15.2438 94.601 15.3464C94.7424 15.4491 94.9096 15.5102 95.0838 15.5228C95.258 15.5355 95.4323 15.4991 95.587 15.418L99.416 13.405L103.245 15.418C103.4 15.4987 103.574 15.5347 103.748 15.5219C103.922 15.509 104.089 15.4479 104.23 15.3453C104.371 15.2428 104.481 15.1029 104.547 14.9414C104.613 14.7799 104.633 14.6031 104.604 14.431L103.872 10.168L106.972 7.15002C107.097 7.02791 107.186 6.87312 107.228 6.70325C107.27 6.53338 107.264 6.35517 107.21 6.18872C107.156 6.02227 107.056 5.87423 106.922 5.76135C106.789 5.64848 106.626 5.57534 106.453 5.55005L102.173 4.92603L100.26 1.047C100.183 0.888785 100.063 0.75542 99.9139 0.662109C99.7648 0.568799 99.5924 0.519287 99.4165 0.519287C99.2405 0.519287 99.0682 0.568799 98.919 0.662109C98.7699 0.75542 98.6489 0.888785 98.572 1.047Z" fill="url(#paint0_linear_2_256)"/>
<defs>
<linearGradient id="paint0_linear_2_256" x1="45.2055" y1="0.51416" x2="62.6904" y2="0.51416" gradientUnits="userSpaceOnUse">
<stop stop-color="#FA6006"/>
<stop offset="1" stop-color="#FFB58A"/>
</linearGradient>
</defs>
</svg>
